# xmcd CD database file
#
# Track frame offsets:
#	150
#	20193
#	44696
#	66354
#	85923
#	107228
#
# Disc length: 1717 seconds
#
# Revision: 0
# Processed by: cddbd v1.5.2PL0 Copyright (c) Steve Scherf et al.
# Submitted via: Feurio! 1.68 - http://www.feurio.com
#
DISCID=5506b306
DTITLE=Virginia Nascimento - frankfurt - ep
DYEAR=1900
DGENRE=
TTITLE0=Flying Without Wings
TTITLE1=Superficial
TTITLE2=Who Are You
TTITLE3=Everything Left
TTITLE4=Frankfurt
TTITLE5=Don't Give Up
EXTD=
EXTT0=
EXTT1=
EXTT2=
EXTT3=
EXTT4=
EXTT5=
PLAYORDER=
